<svg width="367" height="213" xmlns="http://www.w3.org/2000/svg" xmlns:xlink="http://www.w3.org/1999/xlink" xml:space="preserve" overflow="hidden"><defs><clipPath id="clip0"><rect x="438" y="252" width="367" height="213"/></clipPath></defs><g clip-path="url(#clip0)" transform="translate(-438 -252)"><path d="M0.327353 0 161.043 64.6481 182.265 42.7697 197.891 64.6481 266.816 27.1423 254.478 64.6481 366.996 42.7697 303.501 88.9939 338.702 101.825 319.455 112.682 342.65 119.755 293.135 139.002 353.178 209.901C353.178 209.901 277.344 180.457 277.344 180.62 277.344 180.783 299.551 212.862 299.551 212.862L209.57 174.204 208.912 191.477 169.761 171.079 144.099 187.529 136.697 171.9 21.3849 207.433 81.2608 150.023 0 146.075 76.9839 113.999 48.5272 97.0544 87.1844 85.3733 0.327353 0Z" fill="#FFFFFF" transform="matrix(1 0 0 1.00066 438.002 252)"/><path d="M161.536 69.5831 181.605 49.5125 196.41 69.5831 259.086 35.8608 259.413 35.8608 248.555 69.9121C265.993 66.6221 347.254 51.6527 347.254 51.6527 347.254 51.6527 294.45 89.6519 294.121 90.4744 305.307 94.5869 327.187 102.812 327.187 102.812 320.936 106.431 308.103 113.669 308.103 113.669 314.849 115.972 321.921 117.781 328.832 120.084L285.733 137.028C285.733 137.028 337.057 197.399 338.373 199.537L265.827 171.9 286.225 201.676 286.225 201.842C278.658 198.716 205.62 167.953 205.62 167.953L204.798 184.732 169.595 166.144C167.458 167.46 145.251 180.783 145.251 180.783L139 166.8 38.6556 197.068 38.6556 196.902C43.4261 192.464 91.6243 146.404 91.4614 146.075L20.7269 142.785C26.1553 140.151 83.2365 116.465 87.0199 114.656L59.7131 98.6994 59.7131 98.3704 95.5739 87.6779C95.5739 87.6779 21.3865 14.8049 19.5754 12.6664L161.536 69.5831Z" fill="#2D4F9E" transform="matrix(1 0 0 1.00066 438.002 252)"/><path d="M164.004 79.124 180.618 62.3451C185.061 68.1026 189.501 74.5197 193.778 80.2755L245.266 52.8042C245.266 52.8042 236.714 80.2755 236.714 80.6045L313.04 65.9641 276.686 92.7758 307.611 103.963 307.611 104.128C300.702 108.24 287.214 116.135 287.214 116.135 292.477 117.78 298.072 119.591 303.336 121.07 300.869 122.386 279.811 130.611 271.915 133.573 271.915 133.573 305.308 172.887 311.23 180.126 300.538 176.014 243.95 154.3 243.95 154.3L263.197 182.921 198.22 155.614C197.726 160.714 197.233 171.571 197.233 171.571L169.103 156.601 149.199 169.266C147.06 165.32 143.112 156.764 143.112 156.764L69.4169 178.972C69.4169 178.972 111.037 138.998 111.037 138.834 111.037 138.834 67.6074 136.86 57.4085 136.202L105.442 115.804 80.6045 100.838 111.2 91.4614 54.612 35.6963 164.004 79.124Z" fill="#FFFFFF" transform="matrix(1 0 0 1.00066 438.002 252)"/><path d="M192.464 123.703C192.791 125.842 193.614 127.65 195.423 128.638 197.068 129.459 199.371 129.625 200.852 128.472 202.663 127.483 203.814 125.348 203.814 123.373L203.814 86.6909C211.217 86.5248 218.784 86.5248 226.186 86.6909L226.186 124.69C226.186 133.738 222.075 141.469 214.342 145.417 204.801 150.518 190.819 149.859 181.278 144.595 173.053 140.153 170.092 130.119 170.75 120.742L170.75 86.6909 192.464 86.6909 192.464 123.703ZM274.218 86.6909 274.218 104.95 262.703 104.95 262.374 105.444 262.374 147.72C257.439 147.72 261.552 147.554 261.552 147.72L240.333 147.72 240.333 105.115C240.333 105.115 240.167 104.952 239.838 104.787L228.323 104.787 228.323 86.6926 274.218 86.6926 274.218 86.6909ZM148.376 86.3619C154.463 86.5264 160.549 88.6649 163.839 93.7644 166.965 98.6994 167.46 105.608 164.168 110.543 162.854 112.516 161.043 113.833 159.233 115.806 162.854 117.617 166.471 120.247 167.952 124.197 169.761 129.625 168.774 135.712 165.32 140.151 161.701 144.593 156.108 146.238 150.679 146.898L113.504 146.731 113.504 86.1974C114.654 86.1974 137.519 86.3619 148.376 86.3619ZM133.9 100.673 133.9 109.392C137.848 109.392 140.48 109.227 142.948 109.392 143.935 109.227 145.251 107.911 145.744 106.758 146.238 105.608 146.238 103.799 145.415 102.646 144.757 101.494 144.099 100.836 142.454 100.672L133.9 100.672 133.9 100.673ZM133.9 122.224 133.9 132.093C137.848 132.257 141.961 132.257 144.264 132.093 145.744 131.927 147.227 131.435 147.883 129.296 148.376 127.817 148.541 126.172 147.554 124.69 146.731 123.21 145.253 122.387 143.77 122.224L133.9 122.224Z" fill="#CC2229" transform="matrix(1 0 0 1.00066 438.002 252)"/></g></svg>