<svg width="2500" height="1450" viewBox="0 0 223.099 129.399" xmlns="http://www.w3.org/2000/svg" xmlns:xlink="http://www.w3.org/1999/xlink" overflow="hidden"><path d="M0.199 0 97.899 39.3 110.8 26 120.299 39.3 162.199 16.5 154.699 39.3 223.099 26 184.5 54.1 205.899 61.9 194.199 68.5 208.299 72.8 178.199 84.5 214.699 127.6C214.699 127.6 168.599 109.701 168.599 109.8 168.599 109.899 182.099 129.4 182.099 129.4L127.399 105.9 126.999 116.4 103.199 104 87.599 114 83.099 104.499 13 126.1 49.399 91.2 0 88.8 46.799 69.301 29.5 59 53 51.899 0.199 0Z" fill="#FFFFFF"/><path d="M98.199 42.3 110.399 30.099 119.399 42.3 157.5 21.8 157.699 21.8 151.098 42.5C161.699 40.5 211.098 31.4 211.098 31.4 211.098 31.4 178.998 54.5 178.798 55 185.598 57.5 198.899 62.5 198.899 62.5 195.099 64.7 187.298 69.1 187.298 69.1 191.399 70.5 195.698 71.6 199.899 73L173.699 83.3C173.699 83.3 204.899 120 205.699 121.3L161.598 104.499 173.998 122.6 173.998 122.701C169.398 120.801 124.998 102.1 124.998 102.1L124.498 112.3 103.098 101C101.799 101.8 88.299 109.899 88.299 109.899L84.499 101.399 23.499 119.799 23.499 119.698C26.399 117 55.699 89 55.6 88.8L12.6 86.8C15.9 85.199 50.6 70.8 52.9 69.7L36.3 60 36.3 59.8 58.1 53.3C58.1 53.3 13.001 9 11.9 7.7L98.199 42.3Z" fill="#2D4F9E"/><path d="M99.699 48.1 109.799 37.9C112.5 41.4 115.199 45.301 117.799 48.8L149.099 32.1C149.099 32.1 143.9 48.8 143.9 49L190.299 40.1 168.199 56.399 186.999 63.2 186.999 63.3C182.799 65.8 174.599 70.599 174.599 70.599 177.799 71.599 181.2 72.7 184.4 73.599 182.9 74.399 170.099 79.399 165.299 81.2 165.299 81.2 185.599 105.099 189.199 109.5 182.699 107 148.299 93.8 148.299 93.8L159.999 111.199 120.499 94.599C120.199 97.699 119.899 104.299 119.899 104.299L102.799 95.199 90.699 102.898C89.399 100.499 86.999 95.298 86.999 95.298L42.199 108.798C42.199 108.798 67.5 84.498 67.5 84.398 67.5 84.398 41.099 83.198 34.899 82.798L64.099 70.398 49 61.3 67.599 55.6 33.199 21.7 99.699 48.1Z" fill="#FFFFFF"/><path d="M117 75.2C117.199 76.5 117.699 77.599 118.799 78.2 119.799 78.699 121.199 78.8 122.099 78.099 123.2 77.498 123.9 76.2 123.9 74.999L123.9 52.7C128.4 52.599 133 52.599 137.5 52.7L137.5 75.8C137.5 81.3 135.001 86 130.3 88.4 124.5 91.501 116 91.1 110.2 87.9 105.2 85.2 103.4 79.1 103.8 73.4L103.8 52.7 117 52.7 117 75.2ZM166.699 52.7 166.699 63.8 159.699 63.8 159.499 64.1 159.499 89.8C156.499 89.8 158.999 89.699 158.999 89.8L146.1 89.8 146.1 63.9C146.1 63.9 145.999 63.801 145.799 63.701L138.799 63.701 138.799 52.701 166.699 52.701 166.699 52.7ZM90.199 52.5C93.899 52.6 97.599 53.9 99.599 57 101.499 60 101.8 64.2 99.799 67.2 99 68.399 97.899 69.2 96.799 70.399 99 71.5 101.199 73.099 102.099 75.5 103.199 78.8 102.599 82.5 100.499 85.199 98.299 87.899 94.899 88.899 91.599 89.3L69 89.199 69 52.4C69.699 52.4 83.599 52.5 90.199 52.5ZM81.399 61.2 81.399 66.5C83.799 66.5 85.399 66.4 86.899 66.5 87.499 66.4 88.299 65.6 88.599 64.899 88.899 64.2 88.899 63.1 88.399 62.399 87.999 61.699 87.599 61.299 86.599 61.199L81.399 61.199 81.399 61.2ZM81.399 74.301 81.399 80.3C83.799 80.4 86.299 80.4 87.699 80.3 88.599 80.199 89.5 79.9 89.899 78.6 90.199 77.701 90.299 76.701 89.699 75.8 89.199 74.9 88.3 74.4 87.399 74.301L81.399 74.301Z" fill="#CC2229"/></svg>