<svg version="1.1" viewBox="0 0 473.806 473.806" xmlns="http://www.w3.org/2000/svg" xmlns:xlink="http://www.w3.org/1999/xlink" id="Capa_1" overflow="hidden"><style>
.MsftOfcThm_Accent4_Fill {
 fill:#FFE697; 
}
</style>
<g><g><path d=" M 374.456 293.506 C 364.756 283.406 353.056 278.006 340.656 278.006 C 328.356 278.006 316.556 283.306 306.456 293.406 L 274.856 324.906 C 272.256 323.506 269.656 322.206 267.156 320.906 C 263.556 319.106 260.156 317.406 257.256 315.606 C 227.656 296.806 200.756 272.306 174.956 240.606 C 162.456 224.806 154.056 211.506 147.956 198.006 C 156.156 190.506 163.756 182.706 171.156 175.206 C 173.956 172.406 176.756 169.506 179.556 166.706 C 200.556 145.706 200.556 118.506 179.556 97.506 L 152.256 70.206 C 149.156 67.106 145.956 63.906 142.956 60.706 C 136.956 54.506 130.656 48.106 124.156 42.106 C 114.456 32.506 102.856 27.406 90.656 27.406 C 78.456 27.406 66.656 32.506 56.656 42.106 C 56.556 42.206 56.556 42.206 56.456 42.306 L 22.456 76.606 C 9.656 89.406 2.356 105.006 0.756 123.106 C -1.644 152.306 6.956 179.506 13.556 197.306 C 29.756 241.006 53.956 281.506 90.056 324.906 C 133.856 377.206 186.556 418.506 246.756 447.606 C 269.756 458.506 300.456 471.406 334.756 473.606 C 336.856 473.706 339.056 473.806 341.056 473.806 C 364.156 473.806 383.556 465.506 398.756 449.006 C 398.856 448.806 399.056 448.706 399.156 448.506 C 404.356 442.206 410.356 436.506 416.656 430.406 C 420.956 426.306 425.356 422.006 429.656 417.506 C 439.556 407.206 444.756 395.206 444.756 382.906 C 444.756 370.506 439.456 358.606 429.356 348.606 L 374.456 293.506 Z M 410.256 398.806 C 410.156 398.806 410.156 398.906 410.256 398.806 C 406.356 403.006 402.356 406.806 398.056 411.006 C 391.556 417.206 384.956 423.706 378.756 431.006 C 368.656 441.806 356.756 446.906 341.156 446.906 C 339.656 446.906 338.056 446.906 336.556 446.806 C 306.856 444.906 279.256 433.306 258.556 423.406 C 201.956 396.006 152.256 357.106 110.956 307.806 C 76.856 266.706 54.056 228.706 38.956 187.906 C 29.656 163.006 26.256 143.606 27.756 125.306 C 28.756 113.606 33.256 103.906 41.556 95.606 L 75.656 61.506 C 80.556 56.906 85.756 54.406 90.856 54.406 C 97.156 54.406 102.256 58.206 105.456 61.406 C 105.556 61.506 105.656 61.606 105.756 61.706 C 111.856 67.406 117.656 73.306 123.756 79.606 C 126.856 82.806 130.056 86.006 133.256 89.306 L 160.556 116.606 C 171.156 127.206 171.156 137.006 160.556 147.606 C 157.656 150.506 154.856 153.406 151.956 156.206 C 143.556 164.806 135.556 172.806 126.856 180.606 C 126.656 180.806 126.456 180.906 126.356 181.106 C 117.756 189.706 119.356 198.106 121.156 203.806 C 121.256 204.106 121.356 204.406 121.456 204.706 C 128.556 221.906 138.556 238.106 153.756 257.406 L 153.856 257.506 C 181.456 291.506 210.556 318.006 242.656 338.306 C 246.756 340.906 250.956 343.006 254.956 345.006 C 258.556 346.806 261.956 348.506 264.856 350.306 C 265.256 350.506 265.656 350.806 266.056 351.006 C 269.456 352.706 272.656 353.506 275.956 353.506 C 284.256 353.506 289.456 348.306 291.156 346.606 L 325.356 312.406 C 328.756 309.006 334.156 304.906 340.456 304.906 C 346.656 304.906 351.756 308.806 354.856 312.206 C 354.956 312.306 354.956 312.306 355.056 312.406 L 410.156 367.506 C 420.456 377.706 420.456 388.206 410.256 398.806 Z" class="MsftOfcThm_Accent4_Fill" stroke="none" stroke-width="1" stroke-linecap="butt" stroke-dasharray="" stroke-dashoffset="1" fill="#FFE697" fill-opacity="1"/><path d=" M 256.056 112.706 C 282.256 117.106 306.056 129.506 325.056 148.506 C 344.056 167.506 356.356 191.306 360.856 217.506 C 361.956 224.106 367.656 228.706 374.156 228.706 C 374.956 228.706 375.656 228.606 376.456 228.506 C 383.856 227.306 388.756 220.306 387.556 212.906 C 382.156 181.206 367.156 152.306 344.256 129.406 C 321.356 106.506 292.456 91.506 260.756 86.106 C 253.356 84.906 246.456 89.806 245.156 97.106 C 243.856 104.406 248.656 111.506 256.056 112.706 Z" class="MsftOfcThm_Accent4_Fill" stroke="none" stroke-width="1" stroke-linecap="butt" stroke-dasharray="" stroke-dashoffset="1" fill="#FFE697" fill-opacity="1"/><path d=" M 473.256 209.006 C 464.356 156.806 439.756 109.306 401.956 71.506 C 364.156 33.706 316.656 9.106 264.456 0.206 C 257.156 -1.094 250.256 3.906 248.956 11.206 C 247.756 18.606 252.656 25.506 260.056 26.806 C 306.656 34.706 349.156 56.806 382.956 90.506 C 416.756 124.306 438.756 166.806 446.656 213.406 C 447.756 220.006 453.456 224.606 459.956 224.606 C 460.756 224.606 461.456 224.506 462.256 224.406 C 469.556 223.306 474.556 216.306 473.256 209.006 Z" class="MsftOfcThm_Accent4_Fill" stroke="none" stroke-width="1" stroke-linecap="butt" stroke-dasharray="" stroke-dashoffset="1" fill="#FFE697" fill-opacity="1"/></g></g><g></g><g></g><g></g><g></g><g></g><g></g><g></g><g></g><g></g><g></g><g></g><g></g><g></g><g></g><g></g></svg>